# xmcd
#
# Track frame offsets: 
#        150
#        5548
#        14233
#        25018
#        41739
#        76538
#        87321
#        109398
#        120525
#        143349
#        186118
#        201526
#
# Disc length: 2962 seconds
#
# Revision: 0
# Processed by: cddbd v1.5.2PL0 Copyright (c) Steve Scherf et al.
# Submitted via: ExactAudioCopy v0.95b2
#
DISCID=980b900c
DTITLE=Hans Zimmer - Inception Soundtrack
DYEAR=2010
DGENRE=Soundtrack
TTITLE0=Half Remembered Dream
TTITLE1=We Biult Our Own World
TTITLE2=Dream Is Collapsing
TTITLE3=Radical Notion
TTITLE4=Old Souls
TTITLE5=528491
TTITLE6=Mombasa
TTITLE7=One Simple Idea
TTITLE8=Dream Within A Dream
TTITLE9=Waiting For A Train
TTITLE10=Paradox
TTITLE11=Time
EXTD=
EXTT0=
EXTT1=
EXTT2=
EXTT3=
EXTT4=
EXTT5=
EXTT6=
EXTT7=
EXTT8=
EXTT9=
EXTT10=
EXTT11=
PLAYORDER=
